<?xml version="1.0" encoding="UTF-8" standalone="no"?>
<!DOCTYPE svg PUBLIC "-//W3C//DTD SVG 1.1//EN" "http://www.w3.org/Graphics/SVG/1.1/DTD/svg11.dtd">
<svg xmlns="http://www.w3.org/2000/svg" version="1.1" viewBox="0.00 0.00 1024.00 1024.00">
<g stroke-width="2.00" fill="none" stroke-linecap="butt">
<path stroke="#2261d8" vector-effect="non-scaling-stroke" d="
  M 508.24 198.18
  Q 516.03 223.42 526.43 248.40"
/>
<path stroke="#2a4bc4" vector-effect="non-scaling-stroke" d="
  M 432.82 259.99
  C 433.19 243.02 430.27 226.38 426.03 210.00"
/>
<path stroke="#333bbc" vector-effect="non-scaling-stroke" d="
  M 345.79 308.89
  Q 347.62 299.40 349.51 284.43
  Q 351.95 265.18 357.84 239.21"
/>
<path stroke="#1f69e0" vector-effect="non-scaling-stroke" d="
  M 814.09 460.05
  Q 804.98 475.32 800.34 486.32
  Q 792.35 505.24 789.05 512.13
  C 783.85 522.98 777.96 532.85 767.46 538.97"
/>
<path stroke="#245bd2" vector-effect="non-scaling-stroke" d="
  M 809.49 576.68
  Q 797.83 591.64 786.96 606.99
  C 776.56 621.69 762.83 632.42 748.11 642.32
  C 741.44 646.80 732.66 652.36 723.96 651.28"
/>
<path stroke="#2a4bc4" vector-effect="non-scaling-stroke" d="
  M 688.39 756.25
  Q 671.18 764.05 653.47 769.17
  C 637.36 773.83 622.67 774.97 606.36 769.36
  Q 601.29 767.61 593.41 764.60
  C 586.15 761.82 577.69 759.95 569.69 758.24"
/>
<path stroke="#1f69e0" vector-effect="non-scaling-stroke" d="
  M 505.36 293.06
  Q 515.68 299.53 520.13 308.12
  Q 523.31 314.26 526.53 320.37
  C 530.43 327.77 535.36 335.09 539.79 342.46"
/>
<path stroke="#2752cc" vector-effect="non-scaling-stroke" d="
  M 455.07 350.99
  Q 450.74 341.98 448.61 334.28
  Q 444.30 318.76 438.51 305.98"
/>
<path stroke="#333bbc" vector-effect="non-scaling-stroke" d="
  M 434.02 655.25
  Q 435.49 664.86 436.48 674.71
  C 437.78 687.71 441.70 699.52 446.05 711.74"
/>
<path stroke="#245bd2" vector-effect="non-scaling-stroke" d="
  M 628.16 549.59
  C 612.50 557.01 596.69 559.24 584.57 543.99"
/>
<path stroke="#2752cc" vector-effect="non-scaling-stroke" d="
  M 472.89 433.97
  C 467.51 420.67 462.69 407.07 459.54 393.09"
/>
<path stroke="#2a4bc4" vector-effect="non-scaling-stroke" d="
  M 522.37 588.18
  C 528.50 591.66 535.25 593.06 546.85 596.47
  Q 553.20 598.34 567.13 605.11
  C 571.04 607.01 575.89 608.73 580.31 610.31"
/>
<path stroke="#1f69e0" vector-effect="non-scaling-stroke" d="
  M 722.80 541.76
  C 701.72 535.83 685.09 522.97 679.08 501.06"
/>
<path stroke="#245bd2" vector-effect="non-scaling-stroke" d="
  M 671.94 648.00
  L 618.89 634.73"
/>
</g>
<path fill="#2753ca" d="
  M 508.24 198.18
  Q 516.03 223.42 526.43 248.40
  Q 513.44 247.70 500.68 248.00
  Q 496.91 248.09 492.60 248.64
  C 489.01 249.11 485.79 248.87 481.86 249.50
  Q 476.09 250.41 470.53 251.26
  Q 451.32 254.17 432.82 259.99
  C 433.19 243.02 430.27 226.38 426.03 210.00
  Q 446.83 204.07 468.27 201.15
  Q 470.69 200.83 470.84 200.79
  C 474.84 199.85 479.51 200.12 483.94 199.25
  A 3.24 2.87 -37.4 0 1 484.38 199.20
  L 508.24 198.18
  Z"
/>
<path fill="#1c6fe6" d="
  M 526.43 248.40
  Q 516.03 223.42 508.24 198.18
  C 512.02 198.11 515.96 198.03 519.58 198.39
  Q 526.05 199.04 531.24 199.04
  C 535.27 199.04 540.08 200.15 544.30 200.04
  A 6.11 6.01 51.8 0 1 546.09 200.27
  C 548.66 201.02 551.53 200.97 554.26 201.40
  Q 580.04 205.45 605.46 214.06
  Q 611.22 216.01 615.74 219.53
  C 623.27 225.39 625.93 237.61 622.53 246.55
  Q 617.06 260.89 601.63 262.60
  Q 600.29 262.75 596.01 262.22
  Q 593.58 261.92 590.50 260.88
  Q 559.24 250.30 526.43 248.40
  Z"
/>
<path fill="#2d42bd" d="
  M 426.03 210.00
  C 430.27 226.38 433.19 243.02 432.82 259.99
  Q 384.55 275.83 345.79 308.89
  Q 347.62 299.40 349.51 284.43
  Q 351.95 265.18 357.84 239.21
  Q 390.12 220.37 426.03 210.00
  Z"
/>
<path fill="#3833ba" d="
  M 357.84 239.21
  Q 351.95 265.18 349.51 284.43
  Q 347.62 299.40 345.79 308.89
  Q 341.75 312.57 337.63 316.38
  Q 294.25 356.44 272.46 409.93
  Q 263.80 431.17 259.48 452.99
  Q 257.71 461.90 257.28 464.99
  Q 254.78 483.11 254.12 495.26
  C 253.74 502.33 253.72 514.53 254.54 524.24
  Q 255.65 537.23 255.90 539.01
  Q 262.51 585.77 282.57 623.77
  Q 298.51 653.97 325.69 684.37
  Q 326.38 685.14 334.57 693.17
  Q 341.13 699.59 342.00 710.69
  Q 342.12 712.25 341.52 714.77
  Q 340.81 717.76 340.48 718.77
  C 336.18 731.96 321.92 738.59 308.91 733.34
  Q 305.31 731.89 299.38 726.09
  Q 279.36 706.56 262.80 683.95
  Q 223.93 630.91 211.03 565.47
  Q 208.09 550.57 207.38 543.21
  Q 206.90 538.23 206.52 535.31
  Q 205.84 530.06 205.91 528.16
  C 206.03 525.13 205.19 522.01 205.09 518.60
  Q 202.97 442.01 233.81 376.00
  Q 250.26 340.80 278.51 306.43
  Q 289.31 293.29 303.06 280.60
  Q 317.90 266.90 330.24 257.49
  Q 342.54 248.10 357.84 239.21
  Z"
/>
<path fill="#1c6fe6" d="
  M 814.09 460.05
  Q 804.98 475.32 800.34 486.32
  Q 792.35 505.24 789.05 512.13
  C 783.85 522.98 777.96 532.85 767.46 538.97
  Q 769.25 524.36 769.80 509.50
  Q 770.09 501.77 769.32 493.66
  Q 768.94 489.63 769.04 487.83
  Q 769.07 487.17 768.54 481.99
  Q 765.65 454.00 757.19 428.52
  Q 752.08 413.14 744.70 397.52
  C 729.12 364.53 706.58 335.14 679.63 310.63
  Q 675.90 307.23 673.21 305.06
  Q 667.97 300.82 666.87 299.39
  C 656.96 286.51 659.49 269.15 675.07 262.00
  Q 683.62 258.08 693.75 261.19
  Q 695.80 261.81 700.28 265.24
  Q 746.09 300.27 775.39 351.87
  Q 805.05 404.10 814.09 460.05
  Z"
/>
<path fill="#2162da" d="
  M 505.36 293.06
  Q 515.68 299.53 520.13 308.12
  Q 523.31 314.26 526.53 320.37
  C 530.43 327.77 535.36 335.09 539.79 342.46
  Q 496.22 334.91 455.07 350.99
  Q 450.74 341.98 448.61 334.28
  Q 444.30 318.76 438.51 305.98
  Q 461.22 297.31 485.44 294.45
  C 489.15 294.01 491.86 294.20 494.89 293.58
  C 498.24 292.88 501.97 293.00 505.36 293.06
  Z"
/>
<path fill="#1c6fe6" d="
  M 539.79 342.46
  C 535.36 335.09 530.43 327.77 526.53 320.37
  Q 523.31 314.26 520.13 308.12
  Q 515.68 299.53 505.36 293.06
  Q 512.50 292.97 519.50 293.05
  C 524.23 293.11 528.40 294.15 533.00 294.10
  A 11.13 10.89 -39.6 0 1 535.04 294.27
  C 538.21 294.86 540.88 294.98 543.28 295.34
  Q 587.50 301.97 625.15 325.59
  Q 627.80 327.25 638.00 334.58
  C 650.29 343.41 660.32 353.28 670.99 364.73
  Q 678.65 372.95 679.12 382.76
  Q 679.44 389.51 676.68 394.48
  C 671.42 403.97 662.02 408.55 651.39 406.57
  Q 647.94 405.94 643.47 403.31
  C 638.55 400.43 634.03 394.03 630.43 390.07
  Q 626.00 385.20 616.32 377.48
  Q 582.48 350.52 539.79 342.46
  Z"
/>
<path fill="#2d42bd" d="
  M 438.51 305.98
  Q 444.30 318.76 448.61 334.28
  Q 450.74 341.98 455.07 350.99
  Q 441.71 356.00 429.72 363.58
  Q 419.51 370.04 417.85 370.64
  C 405.64 374.98 391.51 369.01 386.62 356.38
  C 383.33 347.87 385.16 339.01 390.74 332.08
  Q 392.74 329.58 397.97 326.23
  Q 417.09 313.97 438.51 305.98
  Z"
/>
<path fill="#3833ba" d="
  M 434.02 655.25
  Q 435.49 664.86 436.48 674.71
  C 437.78 687.71 441.70 699.52 446.05 711.74
  Q 416.61 701.92 391.07 684.40
  Q 373.44 672.31 358.74 658.01
  Q 352.64 652.07 343.92 641.35
  Q 307.02 595.97 298.09 538.00
  Q 297.11 531.64 296.29 517.99
  Q 293.96 479.52 306.86 439.87
  Q 315.58 413.04 329.75 390.76
  Q 334.88 382.69 338.52 380.45
  C 345.14 376.39 352.36 374.93 359.87 377.96
  C 371.82 382.77 377.19 394.69 374.22 407.12
  Q 373.39 410.63 368.33 418.97
  Q 350.42 448.48 344.91 483.94
  Q 344.06 489.40 343.86 494.58
  C 343.69 499.26 342.90 503.85 343.00 508.81
  Q 343.75 546.28 359.84 579.39
  Q 384.16 629.43 434.02 655.25
  Z"
/>
<path fill="#2162da" d="
  M 628.16 549.59
  C 612.50 557.01 596.69 559.24 584.57 543.99
  C 608.38 495.13 580.19 437.88 527.29 426.60
  Q 499.77 420.74 472.89 433.97
  C 467.51 420.67 462.69 407.07 459.54 393.09
  Q 473.09 387.21 487.68 384.54
  Q 490.62 384.00 493.37 383.86
  C 495.96 383.73 498.02 383.11 500.95 383.05
  Q 515.02 382.74 519.24 383.06
  Q 544.26 384.94 566.54 396.17
  Q 593.32 409.66 611.64 433.55
  Q 619.24 443.45 623.92 453.80
  Q 634.39 476.93 635.77 498.27
  Q 637.07 518.21 631.99 537.52
  Q 630.33 543.85 628.16 549.59
  Z"
/>
<path fill="#2d42bd" d="
  M 459.54 393.09
  C 462.69 407.07 467.51 420.67 472.89 433.97
  C 449.92 446.09 433.24 467.91 429.11 493.75
  Q 423.89 526.39 442.49 553.76
  C 460.09 579.66 491.52 592.35 522.37 588.18
  C 528.50 591.66 535.25 593.06 546.85 596.47
  Q 553.20 598.34 567.13 605.11
  C 571.04 607.01 575.89 608.73 580.31 610.31
  Q 554.26 628.20 524.50 630.91
  Q 518.57 631.46 506.68 631.22
  Q 496.67 631.02 488.95 629.63
  Q 459.52 624.35 435.77 606.27
  C 431.46 602.99 428.06 599.55 424.04 596.10
  Q 422.74 594.98 419.67 591.67
  Q 384.16 553.39 385.04 500.34
  Q 385.07 498.24 385.49 495.04
  Q 385.58 494.38 386.16 489.76
  Q 387.57 478.59 392.04 465.51
  C 403.21 432.88 428.45 407.37 459.54 393.09
  Z"
/>
<path fill="#1c6fe6" d="
  M 722.80 541.76
  C 701.72 535.83 685.09 522.97 679.08 501.06
  Q 678.46 497.22 678.16 493.19
  Q 677.72 487.15 677.46 485.32
  Q 675.56 472.06 672.33 462.13
  Q 669.74 454.14 669.65 450.01
  C 669.34 436.67 677.53 425.87 691.28 424.85
  Q 699.60 424.22 705.82 428.76
  Q 710.20 431.94 713.17 435.99
  Q 715.36 438.96 717.04 445.21
  Q 721.90 463.19 723.44 472.54
  Q 727.19 495.26 725.63 516.75
  Q 724.91 526.62 724.92 527.57
  A 6.71 6.61 53.0 0 1 724.67 529.45
  Q 723.88 532.28 723.87 535.64
  A 1.93 1.30 60.4 0 1 723.85 535.91
  L 722.80 541.76
  Z"
/>
<path fill="#2162da" d="
  M 814.09 460.05
  Q 814.91 465.29 815.59 470.35
  Q 816.01 473.52 816.06 475.69
  C 816.13 478.25 816.84 480.32 816.89 482.78
  Q 817.00 489.11 817.74 496.99
  C 818.22 502.12 818.08 513.97 817.40 522.57
  Q 817.18 525.23 816.92 530.75
  Q 815.99 550.27 809.49 576.68
  Q 797.83 591.64 786.96 606.99
  C 776.56 621.69 762.83 632.42 748.11 642.32
  C 741.44 646.80 732.66 652.36 723.96 651.28
  Q 745.28 619.08 757.34 582.32
  Q 764.28 561.16 767.46 538.97
  C 777.96 532.85 783.85 522.98 789.05 512.13
  Q 792.35 505.24 800.34 486.32
  Q 804.98 475.32 814.09 460.05
  Z"
/>
<path fill="#2162da" d="
  M 722.80 541.76
  Q 720.76 552.74 719.56 557.31
  Q 710.47 591.93 691.03 622.54
  Q 682.24 636.38 671.94 648.00
  L 618.89 634.73
  Q 623.09 631.34 624.73 629.74
  Q 653.61 601.55 668.05 564.28
  Q 679.69 534.20 679.08 501.06
  C 685.09 522.97 701.72 535.83 722.80 541.76
  Z"
/>
<path fill="#2753ca" d="
  M 584.57 543.99
  C 596.69 559.24 612.50 557.01 628.16 549.59
  Q 617.19 577.81 595.48 598.22
  Q 588.35 604.93 580.31 610.31
  C 575.89 608.73 571.04 607.01 567.13 605.11
  Q 553.20 598.34 546.85 596.47
  C 535.25 593.06 528.50 591.66 522.37 588.18
  C 549.65 584.56 572.08 568.39 584.57 543.99
  Z"
/>
<path fill="#2753ca" d="
  M 809.49 576.68
  Q 808.49 581.09 807.33 585.35
  Q 793.89 634.59 765.27 676.81
  Q 733.69 723.41 688.39 756.25
  Q 671.18 764.05 653.47 769.17
  C 637.36 773.83 622.67 774.97 606.36 769.36
  Q 601.29 767.61 593.41 764.60
  C 586.15 761.82 577.69 759.95 569.69 758.24
  Q 587.17 754.06 603.88 747.68
  Q 606.35 746.74 608.53 745.64
  C 610.58 744.61 612.95 743.88 614.76 743.04
  Q 658.86 722.51 690.29 692.03
  Q 707.51 675.33 723.96 651.28
  C 732.66 652.36 741.44 646.80 748.11 642.32
  C 762.83 632.42 776.56 621.69 786.96 606.99
  Q 797.83 591.64 809.49 576.68
  Z"
/>
<path fill="#2753ca" d="
  M 618.89 634.73
  L 671.94 648.00
  Q 646.07 678.06 611.03 696.77
  C 602.31 701.43 594.22 705.70 584.23 704.97
  Q 578.39 704.54 572.82 700.61
  Q 564.86 694.99 563.35 684.26
  C 562.41 677.59 566.13 669.89 570.58 665.56
  Q 572.65 663.54 579.48 660.31
  Q 600.90 650.18 618.89 634.73
  Z"
/>
<path fill="#2d42bd" d="
  M 434.02 655.25
  Q 453.93 665.22 475.72 670.20
  Q 482.27 671.70 492.04 672.86
  C 497.10 673.47 504.60 674.54 511.35 674.96
  Q 522.56 675.65 528.88 684.26
  C 535.82 693.69 534.51 706.41 526.79 715.32
  Q 523.70 718.89 517.12 721.43
  Q 512.90 723.06 505.71 722.71
  Q 493.23 722.10 483.98 720.90
  C 481.86 720.63 479.87 719.81 477.79 719.91
  A 3.19 2.99 -36.2 0 1 476.80 719.79
  Q 474.48 719.09 469.70 718.24
  C 461.73 716.83 453.72 714.23 446.05 711.74
  C 441.70 699.52 437.78 687.71 436.48 674.71
  Q 435.49 664.86 434.02 655.25
  Z"
/>
<path fill="#2d42bd" d="
  M 569.69 758.24
  C 577.69 759.95 586.15 761.82 593.41 764.60
  Q 601.29 767.61 606.36 769.36
  C 622.67 774.97 637.36 773.83 653.47 769.17
  Q 671.18 764.05 688.39 756.25
  C 655.73 779.79 618.55 797.07 579.32 806.31
  Q 559.67 810.93 540.65 813.14
  Q 534.09 813.90 530.83 813.99
  C 526.29 814.12 522.47 814.95 517.71 814.91
  Q 492.37 814.69 476.49 812.89
  Q 452.17 810.13 427.98 803.03
  Q 405.48 796.42 385.12 785.40
  Q 379.06 782.12 376.08 775.93
  Q 369.65 762.60 377.17 750.43
  C 381.74 743.02 390.87 739.45 399.37 740.13
  Q 402.71 740.39 409.92 743.75
  Q 441.45 758.45 477.26 762.97
  Q 523.94 768.86 569.69 758.24
  Z"
/>
</svg>
